<?xml version="1.0" encoding="utf-8"?>
<!-- Generator: Adobe Illustrator 22.1.0, SVG Export Plug-In . SVG Version: 6.00 Build 0)  -->
<svg version="1.1" id="Capa_1" xmlns="http://www.w3.org/2000/svg" xmlns:xlink="http://www.w3.org/1999/xlink" x="0px" y="0px"
	 viewBox="0 0 1133 356" style="enable-background:new 0 0 1133 356;" xml:space="preserve">
<style type="text/css">
	.st0{fill:#FCFCFC;}
	.st1{fill:#FFFFFF;}
	.st2{fill:#EAEAEA;}
	.st3{fill:#A0A8B0;}
	.st4{fill:#7A8590;}
	.st5{fill:#E6E6E6;}
	.st6{fill:#EF7B11;}
	.st7{fill:#DFD31D;}
	.st8{fill:#49A934;}
</style>
<title>Recurso 2</title>
<g>
	<g id="Capa_2_1_">
		<g id="Web_BG">
			<rect x="241" y="72.4" class="st0" width="889" height="405.1"/>
		</g>
		<g id="Web_Content">
			<g id="Item">
				<g>
					
						<image style="overflow:visible;opacity:0.15;" width="824" height="90" xlink:href="701F84D.png"  transform="matrix(1 0 0 1 271 98.5)">
					</image>
					<g>
						<rect x="286" y="110.5" class="st1" width="794" height="60"/>
					</g>
				</g>
				<rect x="332" y="123.5" class="st2" width="223" height="6"/>
				<rect x="332" y="134.5" class="st2" width="127" height="6"/>
				<g>
					
						<image style="overflow:visible;opacity:0.15;" width="824" height="90" xlink:href="701F84F.png"  transform="matrix(1 0 0 1 271 175.5)">
					</image>
					<g>
						<rect x="286" y="187.5" class="st1" width="794" height="60"/>
					</g>
				</g>
				<rect x="332" y="200.5" class="st2" width="223" height="6"/>
				<rect x="332" y="211.5" class="st2" width="127" height="6"/>
			</g>
		</g>
		<g id="Sidebar">
			<g>
				
					<image style="overflow:visible;opacity:0.2;" width="245" height="420" xlink:href="701F84A.png"  transform="matrix(1 0 0 1 4 63.5)">
				</image>
				<g>
					<rect x="8" y="69.5" class="st3" width="233" height="408"/>
				</g>
			</g>
			<rect x="39" y="230.5" class="st4" width="132" height="10.5"/>
			<rect x="39" y="208.5" class="st4" width="170" height="10.5"/>
			<rect x="39" y="156" class="st4" width="132" height="11.5"/>
			<rect x="39" y="134" class="st4" width="170" height="11"/>
		</g>
		<g id="Header">
			<g>
				
					<image style="overflow:visible;opacity:0.2;" width="1152" height="87" xlink:href="701F84B.png"  transform="matrix(1 0 0 1 -7 4.5)">
				</image>
				<g>
					<path class="st5" d="M1130,73.5H8v-47c0-5.5,4.5-10,10-10h1102c5.5,0,10,4.5,10,10V73.5z"/>
				</g>
			</g>
			<circle class="st6" cx="39" cy="46.7" r="6.1"/>
			<circle class="st7" cx="59.2" cy="46.7" r="6.1"/>
			<circle class="st8" cx="79.4" cy="46.7" r="6.1"/>
			<path class="st1" d="M122,30.5h957c5.5,0,10,4.5,10,10v11.7c0,5.5-4.5,10-10,10H122c-5.5,0-10-4.5-10-10V40.5
				C112,35,116.5,30.5,122,30.5z"/>
		</g>
	</g>
</g>
</svg>
