<svg xmlns="http://www.w3.org/2000/svg" viewBox="0 0 184 184"><defs><style>.cls-1{fill:#dddcfb;}.cls-2{fill:#5a52ff;}</style></defs><title>conf_icon</title><g id="Capa_2" data-name="Capa 2"><g id="Capa_1-2" data-name="Capa 1"><g id="Capa_2-2" data-name="Capa 2"><g id="Capa_1-2-2" data-name="Capa 1-2"><circle class="cls-1" cx="92" cy="92" r="92"/></g></g><path class="cls-2" d="M130,97a42.1,42.1,0,0,0,.32-5,31,31,0,0,0-.39-5l10.79-8.43a2.63,2.63,0,0,0,.64-3.26L131.15,57.64A2.6,2.6,0,0,0,128,56.49L115.31,61.6a37.57,37.57,0,0,0-8.62-5l-1.92-13.54a2.55,2.55,0,0,0-2.55-2.17H81.78a2.49,2.49,0,0,0-2.49,2.17L77.38,56.62a38.3,38.3,0,0,0-8.62,5L56.05,56.49a2.53,2.53,0,0,0-3.13,1.15L42.7,75.33a2.48,2.48,0,0,0,.64,3.26L54.13,87a32.81,32.81,0,0,0-.45,5,31.57,31.57,0,0,0,.39,5l-10.79,8.43a2.63,2.63,0,0,0-.64,3.26l10.21,17.69A2.6,2.6,0,0,0,56,127.51l12.71-5.11a37.57,37.57,0,0,0,8.62,5l1.92,13.54a2.6,2.6,0,0,0,2.55,2.17h20.44a2.45,2.45,0,0,0,2.49-2.17l1.91-13.54a38.3,38.3,0,0,0,8.62-5L128,127.51a2.53,2.53,0,0,0,3.13-1.15l10.22-17.69a2.48,2.48,0,0,0-.64-3.26ZM92,111.16A19.16,19.16,0,1,1,111.16,92,19.21,19.21,0,0,1,92,111.16Z"/></g></g></svg>