<svg xmlns="http://www.w3.org/2000/svg" viewBox="0 0 184 184"><defs><style>.cls-1{fill:#f6e1e4;}.cls-2{fill:#cc2664;}</style></defs><title>exit_icon</title><g id="Capa_2" data-name="Capa 2"><g id="Capa_1-2" data-name="Capa 1"><circle class="cls-1" cx="92" cy="92" r="92"/><path class="cls-2" d="M83.09,109.75l6.58,6.58L113,93,89.67,69.67l-6.58,6.58,12,12.08H50v9.34H95.13ZM124.67,51H59.33A9.33,9.33,0,0,0,50,60.33V79h9.33V60.33h65.34v65.34H59.33V107H50v18.67A9.33,9.33,0,0,0,59.33,135h65.34a9.36,9.36,0,0,0,9.33-9.33V60.33A9.36,9.36,0,0,0,124.67,51Z"/></g></g></svg>