<svg xmlns="http://www.w3.org/2000/svg" viewBox="0 0 114 121.03"><defs><style>.cls-1{fill:#f2f2f2;}.cls-2{fill:#c1ddee;}.cls-3{fill:#abcde1;}.cls-4,.cls-7{fill:none;}.cls-4,.cls-5,.cls-7{stroke:#203986;stroke-miterlimit:10;}.cls-4,.cls-5{stroke-width:3px;}.cls-5{fill:#88b2cc;}.cls-6{fill:#203986;}.cls-7{stroke-linecap:round;stroke-width:2px;}</style></defs><title>Recurso 3</title><g id="Capa_2" data-name="Capa 2"><g id="Capa_1-2" data-name="Capa 1"><ellipse class="cls-1" cx="57" cy="111.53" rx="57" ry="9.5"/><path class="cls-2" d="M87,102.34V1.53H36.23C30.58,1.53,26,5.3,26,10V101l27-9,15.68,5.44.16,0Z"/><path class="cls-3" d="M88,99.66V1.53H83.06a7.81,7.81,0,0,0-7.56,8v90.62l5.62,1.87Z"/><path class="cls-4" d="M86.5,1.53h-59a8,8,0,0,0-8,8v93.89l33.5-11,33.5,11V36H93V1.53Z"/><path class="cls-5" d="M94,1.5h0A7.5,7.5,0,0,1,101.5,9V37.75a0,0,0,0,1,0,0h-15a0,0,0,0,1,0,0V9A7.5,7.5,0,0,1,94,1.5Z"/><circle class="cls-6" cx="45" cy="41.03" r="3"/><circle class="cls-6" cx="61" cy="41.03" r="3"/><ellipse class="cls-3" cx="52.5" cy="56.53" rx="3" ry="1.5"/><path class="cls-7" d="M49.43,56.23a4.52,4.52,0,0,1,6.25.11"/></g></g></svg>